<svg xmlns="http://www.w3.org/2000/svg" viewBox="0 0 14.08 14.08"><defs><style>.cls-1{fill:#fff;}.cls-2{fill:none;}</style></defs><title>icon_github</title><g id="Capa_2" data-name="Capa 2"><g id="Capa_1-2" data-name="Capa 1"><path class="cls-1" d="M9.51,2.91A4.81,4.81,0,0,0,7,2.25a4.81,4.81,0,0,0-2.47.66A4.9,4.9,0,0,0,2.79,4.7a4.81,4.81,0,0,0-.66,2.47,4.77,4.77,0,0,0,.94,2.89,4.82,4.82,0,0,0,2.42,1.78.29.29,0,0,0,.26,0,.25.25,0,0,0,.08-.19s0-.13,0-.34,0-.41,0-.57l-.15,0a1.91,1.91,0,0,1-.35,0,2.8,2.8,0,0,1-.44,0,1,1,0,0,1-.43-.19.81.81,0,0,1-.28-.39L4.1,9.94a1.6,1.6,0,0,0-.2-.33.78.78,0,0,0-.28-.24l0,0-.08-.08-.06-.09s0-.05,0-.07a.41.41,0,0,1,.18,0l.13,0a.91.91,0,0,1,.32.15,1,1,0,0,1,.31.33,1.13,1.13,0,0,0,.35.4.75.75,0,0,0,.42.14,1.84,1.84,0,0,0,.36,0,1.23,1.23,0,0,0,.29-.1,1,1,0,0,1,.31-.66,4.47,4.47,0,0,1-.66-.11A2.66,2.66,0,0,1,4.89,9a1.71,1.71,0,0,1-.51-.43A2,2,0,0,1,4,7.87a3.17,3.17,0,0,1-.13-1,1.87,1.87,0,0,1,.5-1.32,1.72,1.72,0,0,1,0-1.31A.91.91,0,0,1,5,4.37a4,4,0,0,1,.53.25l.27.17a4.6,4.6,0,0,1,2.46,0l.24-.15a3.52,3.52,0,0,1,.59-.28.84.84,0,0,1,.52-.07,1.7,1.7,0,0,1,.05,1.31,1.87,1.87,0,0,1,.51,1.32,3.24,3.24,0,0,1-.13,1,2,2,0,0,1-.34.67A1.8,1.8,0,0,1,9.19,9a2.66,2.66,0,0,1-.6.25,4.47,4.47,0,0,1-.66.11,1.14,1.14,0,0,1,.33.91v1.35a.25.25,0,0,0,.08.19.28.28,0,0,0,.25,0A4.82,4.82,0,0,0,11,10.05,4.78,4.78,0,0,0,12,7.16,4.81,4.81,0,0,0,11.3,4.7,4.88,4.88,0,0,0,9.51,2.91"/><rect class="cls-2" width="14.08" height="14.08"/></g></g></svg>