<svg xmlns="http://www.w3.org/2000/svg" viewBox="0 0 14.08 14.08"><defs><style>.cls-1{fill:#fff;}.cls-2{fill:none;}</style></defs><title>icon_mail</title><g id="Capa_2" data-name="Capa 2"><g id="Capa_1-2" data-name="Capa 1"><path class="cls-1" d="M7,8.45,5.83,7.38l-3.47,3a.71.71,0,0,0,.48.19h8.41a.7.7,0,0,0,.48-.19l-3.47-3Z"/><path class="cls-1" d="M11.73,3.72a.71.71,0,0,0-.49-.19H2.83a.71.71,0,0,0-.48.19L7,7.74Z"/><polygon class="cls-1" points="2.13 4.15 2.13 9.98 5.52 7.1 2.13 4.15"/><polygon class="cls-1" points="8.56 7.1 11.96 9.98 11.96 4.15 8.56 7.1"/><rect class="cls-2" width="14.08" height="14.08"/></g></g></svg>