<svg xmlns="http://www.w3.org/2000/svg" viewBox="0 0 14.08 14.08"><defs><style>.cls-1{fill:#fff;}.cls-2{fill:none;}</style></defs><title>icon_linkedin</title><g id="Capa_2" data-name="Capa 2"><g id="Capa_1-2" data-name="Capa 1"><path class="cls-1" d="M3.79,2.93a1,1,0,1,0,0,1.92h0a1,1,0,1,0,0-1.92"/><path class="cls-1" d="M9.22,5.48a1.83,1.83,0,0,0-1.66.92v0h0v-.8H5.71c0,.52,0,5.54,0,5.54H7.56V8.05a1.3,1.3,0,0,1,.06-.45,1,1,0,0,1,.95-.67c.67,0,.93.51.93,1.25v3h1.84V8c0-1.7-.91-2.5-2.12-2.5"/><rect class="cls-1" x="2.85" y="5.61" width="1.84" height="5.54"/><rect class="cls-2" width="14.08" height="14.08"/></g></g></svg>