<svg xmlns="http://www.w3.org/2000/svg" viewBox="0 0 14.08 14.08"><defs><style>.cls-1{fill:#fff;}.cls-2{fill:none;}</style></defs><title>icon_instagram</title><g id="Capa_2" data-name="Capa 2"><g id="Capa_1-2" data-name="Capa 1"><path class="cls-1" d="M3.7,2.54h6.69A1.16,1.16,0,0,1,11.54,3.7v6.69a1.16,1.16,0,0,1-1.15,1.16H3.7a1.16,1.16,0,0,1-1.15-1.16V3.7A1.16,1.16,0,0,1,3.7,2.54m5.4,1a.41.41,0,0,0-.4.4v1a.41.41,0,0,0,.4.4h1a.41.41,0,0,0,.41-.4v-1a.41.41,0,0,0-.41-.4Zm1.43,2.81H9.73a2.67,2.67,0,0,1,.11.77,2.76,2.76,0,0,1-2.8,2.71,2.76,2.76,0,0,1-2.8-2.71,2.67,2.67,0,0,1,.11-.77H3.54v3.8a.36.36,0,0,0,.36.36h6.27a.36.36,0,0,0,.36-.36ZM7.05,5.27A1.75,1.75,0,1,0,8.86,7,1.78,1.78,0,0,0,7.05,5.27"/><rect class="cls-2" width="14.08" height="14.08"/></g></g></svg>