<svg xmlns="http://www.w3.org/2000/svg" viewBox="0 0 390.07 512"><defs><style>.cls-1{fill:#fff;}</style></defs><title>icon_curriculum</title><g id="Capa_2" data-name="Capa 2"><g id="Layer_1" data-name="Layer 1"><path class="cls-1" d="M340.55,0h-291A49.58,49.58,0,0,0,.06,49.53c0,368.3-.4,346.06.86,349.83a16.61,16.61,0,0,0,4,6.42c1,1,101.3,101.42,102.76,102.55,6.52,5-3.5,3.43,232.92,3.43a49.58,49.58,0,0,0,49.53-49.53V49.53A49.58,49.58,0,0,0,340.55,0ZM101.18,455.4,56.42,410.65h44.75Zm255.88,6.84a16.53,16.53,0,0,1-16.51,16.51H134.19V394.14a16.51,16.51,0,0,0-16.51-16.51H33.08V49.53A16.53,16.53,0,0,1,49.59,33h291a16.53,16.53,0,0,1,16.51,16.51Zm-52.62-129a16.51,16.51,0,0,1-16.51,16.51H101.18a16.51,16.51,0,1,1,0-33H287.93A16.51,16.51,0,0,1,304.44,333.26Zm0,84.61a16.51,16.51,0,0,1-16.51,16.51H181.65a16.51,16.51,0,0,1,0-33H287.93A16.51,16.51,0,0,1,304.44,417.87Zm-110-244.45a55.56,55.56,0,1,0-55.56-55.56,55.63,55.63,0,0,0,55.56,55.56Zm0-78.11a22.55,22.55,0,1,1-22.55,22.55,22.57,22.57,0,0,1,22.55-22.55Zm-83.59,159V231.65a36.27,36.27,0,0,1,21.46-33.08l26.18-11.69c4.39-2,1.32-1.43,64.8-1.43,4.64,0,4.48.43,32.91,13.12a36.27,36.27,0,0,1,21.46,33.08v22.64a16.51,16.51,0,1,1-33,0V231.65a3.21,3.21,0,0,0-1.9-2.93l-23-10.26h-51l-23,10.26a3.22,3.22,0,0,0-1.9,2.93v22.64a16.51,16.51,0,0,1-33,0Z"/></g></g></svg>