<svg xmlns="http://www.w3.org/2000/svg" viewBox="0 0 212.97 191.62"><defs><style>.cls-1{fill:#fff;}</style></defs><title>icon_codigo</title><g id="Capa_2" data-name="Capa 2"><g id="Capa_1-2" data-name="Capa 1"><path class="cls-1" d="M119.73,92.44a7.5,7.5,0,0,0-10.06,3.36L89.78,135.69a7.5,7.5,0,1,0,13.42,6.69L123.1,102.5A7.5,7.5,0,0,0,119.73,92.44Z"/><path class="cls-1" d="M171.84,38.29a7.49,7.49,0,1,0-5.3-2.2A7.56,7.56,0,0,0,171.84,38.29Z"/><path class="cls-1" d="M144.85,38.29a7.49,7.49,0,1,0-5.31-2.2A7.55,7.55,0,0,0,144.85,38.29Z"/><path class="cls-1" d="M117.85,38.29a7.49,7.49,0,1,0-5.31-2.2A7.55,7.55,0,0,0,117.85,38.29Z"/><path class="cls-1" d="M205.47,0H7.5A7.5,7.5,0,0,0,0,7.5V184.12a7.5,7.5,0,0,0,7.5,7.5h198a7.5,7.5,0,0,0,7.5-7.5V7.5A7.5,7.5,0,0,0,205.47,0ZM198,15V46.57H15V15ZM15,176.62v-115H198v115Z"/><path class="cls-1" d="M80,94.41a7.5,7.5,0,0,0-10.61,0L49.64,114.13a7.5,7.5,0,0,0,0,10.61l19.64,19.63a7.5,7.5,0,0,0,10.61-10.61L65.55,119.43,80,105A7.5,7.5,0,0,0,80,94.41Z"/><path class="cls-1" d="M143.73,94.41A7.5,7.5,0,1,0,133.13,105l14.33,14.33L133,133.76a7.5,7.5,0,0,0,10.61,10.6l19.72-19.72a7.5,7.5,0,0,0,0-10.61Z"/></g></g></svg>